<svg id="Capa_1" enable-background="new 0 0 512 512" height="300" viewBox="0 0 512 512" width="300" xmlns="http://www.w3.org/2000/svg" version="1.1" xmlns:xlink="http://www.w3.org/1999/xlink" xmlns:svgjs="http://svgjs.dev/svgjs"><g width="100%" height="100%" transform="matrix(1,0,0,1,0,0)"><g><path d="m256 0-60 256 60 256 152.412-215.28c22.955-31.981 35.088-69.747 35.088-109.22 0-103.388-84.112-187.5-187.5-187.5z" fill="#274033" fill-opacity="1" data-original-color="#c62d1aff" stroke="none" stroke-opacity="1"/><path d="m68.5 187.5c0 39.473 12.133 77.238 35.088 109.22l152.412 215.28v-512c-103.388 0-187.5 84.112-187.5 187.5z" fill="#274033" fill-opacity="1" data-original-color="#f72e12ff" stroke="none" stroke-opacity="1"/><path d="m256 60s-45 195.5-45 195.5h104.5l68-68c0-70.416-57.084-127.5-127.5-127.5z" fill="#7aa143" fill-opacity="1" data-original-color="#7aa143ff" stroke="none" stroke-opacity="1"/><path d="m188.074 79.59 67.926 175.91v-195.5c-24.971 0-48.26 7.185-67.926 19.59z" fill="#a6b242" fill-opacity="1" data-original-color="#a6b242ff" stroke="none" stroke-opacity="1"/><path d="m256 99.227-30 71.924 30 143.849 59.5-59.5v-48.41c0-45.415-23.749-85.277-59.5-107.863z" fill="#a6b242" fill-opacity="1" data-original-color="#a6b242ff" stroke="none" stroke-opacity="1"/><path d="m128.5 187.5 127.5 127.5v-215.773c-19.662-12.422-42.953-19.622-67.926-19.636-35.793 22.577-59.574 62.463-59.574 107.909z" fill="#d3c240" fill-opacity="1" data-original-color="#d3c240ff" stroke="none" stroke-opacity="1"/><path d="m128.5 187.5c0 70.416 57.084 127.5 127.5 127.5 0-70.474-57.026-127.5-127.5-127.5z" fill="#4d9145" fill-opacity="1" data-original-color="#4d9145ff" stroke="none" stroke-opacity="1"/><path d="m256 315c70.416 0 127.5-57.084 127.5-127.5-70.474 0-127.5 57.026-127.5 127.5z" fill="#3e7c43" fill-opacity="1" data-original-color="#3e7c43ff" stroke="none" stroke-opacity="1"/></g></g></svg>